<?xml version="1.0" encoding="UTF-8"?>
<svg id="_レイヤー_2" data-name="レイヤー 2" xmlns="http://www.w3.org/2000/svg" viewBox="0 0 372.21 25.99">
  <defs>
    <style>
      .cls-1 {
        fill: #ec6d56;
      }

      .cls-2 {
        fill: #a0c739;
      }
    </style>
  </defs>
  <g id="_レイヤー_1-2" data-name="レイヤー 1">
    <g>
      <path class="cls-1" d="M12.6,11.71c7.06-.35,10.19,2.92,10.19,6.8,0,3.56-2.48,7.68-7.33,7.09-.38-.03-.55-.29-.47-.67l1.37-5.34v-1.69h-3.27c0,5.66-2.71,7.41-10.74,7.44-.32,0-.55-.12-.73-.38-3.62-5.78-.82-11.59,4.82-12.52v-3.24H1.62c-.38,0-.58-.2-.58-.58v-4.32c0-.38.2-.58.58-.58h4.82v-1.72c0-.38.2-.58.58-.58h4.99c.38,0,.58.2.58.58v1.72h1.93l4.61-2.28c.32-.18.61-.12.79.23l4.5,8.17c.17.35.09.64-.26.79-2.1.79-5.34.91-6.95-1.28-1.17-1.61-2.07-2.95-2.66-3.97v3.24c0,.38-.2.58-.58.58h-1.37v2.51ZM7.9,19.8v-2.69h-2.48v2.69h2.48Z"/>
      <path class="cls-1" d="M48.6,3.36v5.05c0,.35-.23.58-.58.61l-4.67.2-4.64,4.38v5.31h8.2c.38,0,.58.2.58.58v4.38c0,.35-.17.58-.55.64-2.48.32-4.7.41-6.68.41-6.01,0-9.4-2.42-9.4-8.26,0-2.54,1.46-5.52,4.06-7.44l-6.33.32c-.38.03-.61-.2-.61-.58V3.95c0-.35.23-.61.58-.61l19.47-.53c.38,0,.58.18.58.55ZM41.92,12.85l1.08-1.69c.2-.32.47-.38.79-.2l2.39,1.4c.32.2.41.47.26.82-.53.99-1.25,1.49-2.1,1.49-.76,0-1.69-.44-2.34-.99-.29-.23-.26-.53-.09-.82ZM46.94,15.8l1.08-1.69c.2-.29.5-.38.82-.2l2.36,1.4c.32.2.41.47.26.79-.53,1.02-1.23,1.52-2.07,1.52-.76,0-1.72-.44-2.36-.99-.26-.23-.26-.53-.09-.82Z"/>
      <path class="cls-1" d="M67.85,5l3.94-2.28c.29-.18.58-.12.82.15l5.98,6.8c.23.26.26.55.03.82-1.17,1.37-3.09,1.66-4.82,1.02.35.79.5,1.66.5,2.69,0,8.23-2.1,11.27-5.96,11.27-2.74,0-4.61-1.93-4.79-5.28-.03-.41.18-.61.55-.61h3.62c.26-1.63.26-3.82.23-5.46l-3.56.09c-.79,3.21-1.61,5.81-2.69,7.79-1.55,2.83-4.26,4.09-7.47,2.16-.32-.17-.41-.44-.26-.79l3.91-9.02-3.36.09c-.38,0-.58-.2-.58-.58v-4.44c0-.35.18-.58.53-.64,1.17-.17,2.42-.32,3.71-.44l.29-5.02c.03-.35.23-.55.58-.55h4.96c.38,0,.58.2.58.58.03,1.52.03,3.07,0,4.61h.91c1.69,0,3.12.17,4.29.47-.85-.85-1.52-1.63-2.16-2.63-.2-.32-.12-.58.2-.79Z"/>
      <path class="cls-1" d="M83.22,3.42h4.61c.38,0,.58.2.58.58v13.78h1.96c.38,0,.58.2.55.61-.18,3.18-1.81,5.63-4.35,5.63-3.24,0-4.79-2.13-4.79-9.17,0-3.65.26-7.27.79-10.92.06-.35.29-.53.64-.53ZM104.67,6.31c.38,0,.58.2.58.58v4.17c0,.38-.2.58-.58.58h-1.81c0,1.28,0,2.66-.06,4.12-.32,7.91-2.63,10.89-7.5,9.81-.38-.09-.53-.32-.47-.7l1.14-7.21v-6.01h-5.08c-.38,0-.58-.2-.58-.58v-4.17c0-.38.2-.58.58-.58h5.08v-3.77c0-.38.2-.58.58-.58h5.2c.35,0,.55.09.58.26.06.9.2,2.31.32,4.09h2.01Z"/>
      <path class="cls-1" d="M132.29,7.3l-.53,18.1c0,.35-.26.58-.61.58h-5.22c-.38,0-.58-.09-.58-.21v-.23h-9.52c0,.26-.2.44-.58.44h-5.23c-.38,0-.58-.23-.58-.58l-.55-24.23c0-.38.2-.58.58-.58h5.23c.38,0,.58.03.58.12v.15c2.04-.35,3.85-.47,8.35-.47,5.6,0,8.82,1.52,8.67,6.92ZM125.9,6.28l-10.51-.03.09,4.03h10.3l.12-4ZM115.68,19.86h9.84l.12-4.15h-10.04l.09,4.15Z"/>
      <path class="cls-1" d="M144.01,13.81c1.05-.17,2.1-.06,2.6.5.7.7,1.08,2.07,1.25,3.71.03.32-.06.53-.23.76l-1.4,1.69c-.29.38-.64.29-.79-.15l-.85-2.31-.15,7.39c0,.38-.2.58-.58.58h-4.7c-.38,0-.61-.21-.55-.61l.47-3.88c-.99.53-1.98.61-2.89.32-.32-.12-.44-.38-.32-.73l2.51-8.23h-1.66c-.38,0-.58-.2-.58-.58v-3.85c0-.38.2-.58.58-.58h2.51l.03-1.4c-1.49-.23-2.34-1.08-2.6-3.53-.06-.38.15-.61.47-.7L145.03.04c.38-.12.61.06.7.41l1.11,3.88c.09.32-.03.61-.35.76-.41.17-.88.35-1.34.53l-.06,2.22h1.55c.38,0,.58.2.58.58v3.85c0,.38-.2.58-.58.58h-2.6l-.03.96ZM161.61,4.33l-.32,20.43c0,.38-.2.58-.58.58h-4.35c-.38,0-.58-.09-.58-.2v-.23h-1.93c0,.26-.2.44-.58.44h-4.35c-.38,0-.58-.2-.58-.58l-.32-22.97c0-.38.2-.58.58-.58h4.35c.38,0,.58.12.58.32v.32c1.4-.61,3.06-.85,4.55-.85,2.16,0,3.56.73,3.53,3.33ZM153.78,20.09h2.07l.23-14.22h-2.51l.2,14.22Z"/>
      <path class="cls-1" d="M165.12,17.46c.76-1.05,2.16-1.52,3.21-1.52,2.69,0,4.88,1.78,6.63,5.69l-5.43,2.98-4.41-7.15Z"/>
      <path class="cls-2" d="M194.63,15.36l7.94,4.17c.32.17.44.44.23.79-.88,1.55-1.75,2.86-3.44,2.86-1.61,0-3.24-.55-4.73-1.31v2.1c0,.32-.15.55-.47.64-1.72.5-3.97.7-6.42.7-2.28,0-4.58-.15-6.13-.61-.26-.09-.44-.2-.58-.47-3.42-5.93.38-12.41,6.71-11.21V1.85c0-.38.2-.58.58-.58h5.72c.38,0,.58.2.58.58v5.08l4.41-2.54c.32-.2.61-.12.82.18l2.98,4.52c.15.06-2.16,1.23-4.67,2.36-1.2.55-2.45.29-3.53-.35v4.26ZM188.91,20.32v-2.71h-3.04v2.71h3.04Z"/>
      <path class="cls-2" d="M208.75,2.66h5.31c.38,0,.58.2.58.61-.26,3.65-.32,6.1-.47,9.9h1.96c.38,0,.58.2.58.58-.09,2.63-.85,4.85-4.03,4.85s-5.11-2.01-5.11-7.88c0-3.42.15-4.73.53-7.5.06-.38.29-.55.64-.55ZM220.14,2.72c0-.38.2-.58.58-.58h5.66c.35,0,.58.2.61.58.2,4.73.32,9.25.32,10.71,0,8-4,11.88-9.4,11.88-2.8,0-4.85-1.46-5.58-3.77-.12-.35.06-.61.38-.73l7.41-2.92V2.72Z"/>
      <path class="cls-2" d="M250.25,4.79l2.07,4.79c.15.32.09.58-.2.79-2.6,1.93-9.37,5.08-12.03,6.33v2.39c1.52.03,9.14-.32,11.79-.38.38,0,.58.2.58.58v5.02c0,.35-.17.58-.55.64-2.48.32-4.7.35-6.68.35h-3.09c-5.14,0-9.08-2.01-9.08-7.18,0-3.5,1.58-5.55,4.99-7.68-1.05-.21-2.01-.76-2.8-1.63-1.34-1.49-2.83-3.62-3.44-4.7-.17-.35-.06-.61.26-.79l4.99-2.42c.35-.17.58-.09.79.23l4.64,6.95,7.01-3.59c.32-.17.61-.09.76.29ZM246.17,3.19c-.32-.15-.44-.44-.35-.76l.47-1.96c.09-.35.32-.5.67-.44l2.74.53c.35.06.55.38.47.88-.2,1.02-.7,1.63-1.46,1.9-.7.26-1.72.15-2.54-.15ZM251.51,3.57l.5-1.99c.09-.38.35-.53.7-.44l2.71.55c.35.09.53.29.5.67-.15,1.14-.67,1.81-1.46,2.1-.76.23-1.78.15-2.6-.17-.32-.15-.44-.41-.35-.73Z"/>
      <path class="cls-2" d="M260.18,2.66h5.31c.38,0,.58.2.58.61-.26,3.65-.32,6.1-.47,9.9h1.96c.38,0,.58.2.58.58-.09,2.63-.85,4.85-4.03,4.85s-5.11-2.01-5.11-7.88c0-3.42.15-4.73.53-7.5.06-.38.29-.55.64-.55ZM271.56,2.72c0-.38.2-.58.58-.58h5.66c.35,0,.58.2.61.58.2,4.73.32,9.25.32,10.71,0,8-4,11.88-9.4,11.88-2.8,0-4.85-1.46-5.58-3.77-.12-.35.06-.61.38-.73l7.41-2.92V2.72Z"/>
      <path class="cls-2" d="M306.9,11.86c.35.03.55.23.55.58v4.61c0,.38-.23.61-.61.58l-1.52-.09c-.26,1.08-.58,1.99-.85,2.66-1.9,4.96-3.82,5.69-7.44,4.44-.35-.15-.47-.38-.35-.76l2.01-6.66-3.3-.15c0,3.77-1.17,5.81-4.52,6.42-1.78.32-4.35.41-6.28.23-.29,0-.5-.15-.64-.44-3.04-6.22-.18-11.79,5.31-12.32v-3.74h-3.82c-.38,0-.58-.2-.58-.58V2.31c0-.38.2-.58.58-.58h9.66c.38,0,.55.18.55.58l-.26,8.99,3.42.17.17-6.77c0-.35.23-.58.58-.58h5.46c.38,0,.58.21.58.61-.15,2.33-.23,4.7-.47,7.04l1.75.09ZM290.29,18.6v-2.86h-2.36v2.86h2.36Z"/>
      <path class="cls-2" d="M328.89,4.79l2.07,4.79c.15.32.09.58-.2.79-2.6,1.93-9.37,5.08-12.03,6.33v2.39c1.52.03,9.14-.32,11.79-.38.38,0,.58.2.58.58v5.02c0,.35-.17.58-.55.64-2.48.32-4.7.35-6.68.35h-3.09c-5.14,0-9.08-2.01-9.08-7.18,0-3.5,1.58-5.55,4.99-7.68-1.05-.21-2.01-.76-2.8-1.63-1.34-1.49-2.83-3.62-3.44-4.7-.17-.35-.06-.61.26-.79l4.99-2.42c.35-.17.58-.09.79.23l4.64,6.95,7.01-3.59c.32-.17.61-.09.76.29ZM324.8,3.19c-.32-.15-.44-.44-.35-.76l.47-1.96c.09-.35.32-.5.67-.44l2.74.53c.35.06.55.38.47.88-.2,1.02-.7,1.63-1.46,1.9-.7.26-1.72.15-2.54-.15ZM330.14,3.57l.5-1.99c.09-.38.35-.53.7-.44l2.71.55c.35.09.53.29.5.67-.15,1.14-.67,1.81-1.46,2.1-.76.23-1.78.15-2.6-.17-.32-.15-.44-.41-.35-.73Z"/>
      <path class="cls-2" d="M338.82,2.66h5.31c.38,0,.58.2.58.61-.26,3.65-.32,6.1-.47,9.9h1.96c.38,0,.58.2.58.58-.09,2.63-.85,4.85-4.03,4.85s-5.11-2.01-5.11-7.88c0-3.42.15-4.73.53-7.5.06-.38.29-.55.64-.55ZM350.2,2.72c0-.38.2-.58.58-.58h5.66c.35,0,.58.2.61.58.2,4.73.32,9.25.32,10.71,0,8-4,11.88-9.4,11.88-2.8,0-4.85-1.46-5.58-3.77-.12-.35.06-.61.38-.73l7.41-2.92V2.72Z"/>
      <path class="cls-2" d="M362.38,19.8c0-2.69,2.22-4.9,4.93-4.9s4.9,2.22,4.9,4.9-2.22,4.93-4.9,4.93-4.93-2.22-4.93-4.93ZM365.97,21.4h2.77v-3.27h-2.77v3.27Z"/>
    </g>
  </g>
</svg>